<svg width="43" height="43" viewBox="0 0 43 43" fill="none" xmlns="http://www.w3.org/2000/svg">
<path d="M39.9286 21.5C39.9286 31.6778 31.6778 39.9286 21.5 39.9286C17.618 39.9286 14.0163 38.7283 11.0459 36.6785L4.74677 38.2533L6.39743 32.0633C4.30143 29.0721 3.07144 25.4297 3.07144 21.5C3.07144 11.3222 11.3222 3.07144 21.5 3.07144C31.6778 3.07144 39.9286 11.3222 39.9286 21.5Z" fill="url(#paint0_linear_130_4)"/>
<path fill-rule="evenodd" clip-rule="evenodd" d="M21.5 43C33.3741 43 43 33.3741 43 21.5C43 9.62588 33.3741 0 21.5 0C9.62588 0 0 9.62588 0 21.5C0 25.356 1.0151 28.9749 2.79266 32.1041L0 43L11.2335 40.3951C14.2843 42.0562 17.7819 43 21.5 43ZM21.5 39.6923C31.5473 39.6923 39.6923 31.5473 39.6923 21.5C39.6923 11.4527 31.5473 3.30769 21.5 3.30769C11.4527 3.30769 3.30769 11.4527 3.30769 21.5C3.30769 25.3793 4.52191 28.975 6.59104 31.9278L4.96154 38.0385L11.1799 36.4839C14.1122 38.5074 17.6677 39.6923 21.5 39.6923Z" fill="white"/>
<path d="M16.125 11.5179C15.6138 10.4911 14.8297 10.582 14.0375 10.582C12.6217 10.582 10.4141 12.2779 10.4141 15.434C10.4141 18.0207 11.5539 20.8521 15.3946 25.0878C19.1013 29.1755 23.9716 31.2901 28.0148 31.2181C32.0581 31.1461 32.8899 27.6667 32.8899 26.4917C32.8899 25.9709 32.5667 25.7111 32.3441 25.6405C30.9663 24.9792 28.4251 23.7471 27.8468 23.5157C27.2686 23.2842 26.9667 23.5973 26.779 23.7676C26.2547 24.2673 25.2153 25.7399 24.8594 26.0712C24.5035 26.4024 23.9729 26.2348 23.7521 26.1096C22.9396 25.7835 20.7366 24.8036 18.9806 23.1013C16.8089 20.9961 16.6814 20.2718 16.2723 19.6271C15.945 19.1113 16.1851 18.7948 16.305 18.6565C16.7729 18.1166 17.419 17.2831 17.7087 16.8689C17.9985 16.4546 17.7685 15.8257 17.6304 15.434C17.0369 13.7494 16.534 12.3393 16.125 11.5179Z" fill="white"/>
<defs>
<linearGradient id="paint0_linear_130_4" x1="37.625" y1="7.67858" x2="3.07144" y2="39.9286" gradientUnits="userSpaceOnUse">
<stop stop-color="#5BD066"/>
<stop offset="1" stop-color="#27B43E"/>
</linearGradient>
</defs>
</svg>
